<svg width="40" height="40" viewBox="0 0 37 36" fill="none" xmlns="http://www.w3.org/2000/svg">
<path opacity="0.1" fill-rule="evenodd" clip-rule="evenodd" d="M18.625 35.0071C28.0215 35.0071 35.6389 27.3943 35.6389 18.0035C35.6389 8.61275 28.0215 1 18.625 1C9.22846 1 1.61108 8.61275 1.61108 18.0035C1.61108 27.3943 9.22846 35.0071 18.625 35.0071Z" stroke="white" stroke-width="1.5"/>
<path d="M20.1741 13.6519H21.7378C21.8817 13.6519 21.9985 13.542 21.9985 13.4065V11.9339C21.9985 11.7984 21.8817 11.6885 21.7378 11.6885H20.1741C18.5938 11.6885 17.3073 12.8994 17.3073 14.3882V16.1063H15.483C15.3392 16.1063 15.2224 16.2162 15.2224 16.3517V17.8243C15.2224 17.9598 15.3392 18.0697 15.483 18.0697H17.3073V23.2238C17.3073 23.3593 17.4241 23.4692 17.568 23.4692H19.1317C19.2755 23.4692 19.3923 23.3593 19.3923 23.2238V18.0697H21.2166C21.3287 18.0697 21.4282 18.002 21.4642 17.9018L21.9854 16.4292C22.012 16.3546 21.9985 16.2722 21.9495 16.2079C21.8999 16.144 21.8218 16.1063 21.7378 16.1063H19.3923V14.3882C19.3923 13.9823 19.7431 13.6519 20.1741 13.6519Z" fill="white"/>
</svg>
