<svg width="40" height="40" viewBox="0 0 36 36" fill="none" xmlns="http://www.w3.org/2000/svg">
<path opacity="0.1" fill-rule="evenodd" clip-rule="evenodd" d="M18.0139 35.0071C27.4104 35.0071 35.0278 27.3943 35.0278 18.0035C35.0278 8.61275 27.4104 1 18.0139 1C8.61738 1 1 8.61275 1 18.0035C1 27.3943 8.61738 35.0071 18.0139 35.0071Z" stroke="white" stroke-width="1.5"/>
<path d="M14.1085 14.5714C14.9051 14.5714 15.5508 13.926 15.5508 13.1299C15.5508 12.3338 14.9051 11.6885 14.1085 11.6885C13.3119 11.6885 12.6661 12.3338 12.6661 13.1299C12.6661 13.926 13.3119 14.5714 14.1085 14.5714Z" fill="white"/>
<path d="M15.3103 15.5342H12.9064C12.7737 15.5342 12.666 15.6418 12.666 15.7744V22.9817C12.666 23.1144 12.7737 23.222 12.9064 23.222H15.3103C15.443 23.222 15.5507 23.1144 15.5507 22.9817V15.7744C15.5507 15.6418 15.443 15.5342 15.3103 15.5342Z" fill="white"/>
<path d="M22.4739 15.1348C21.4465 14.7831 20.1614 15.092 19.3907 15.6461C19.3642 15.5427 19.27 15.4659 19.158 15.4659H16.7541C16.6214 15.4659 16.5137 15.5735 16.5137 15.7061V22.9134C16.5137 23.046 16.6214 23.1537 16.7541 23.1537H19.158C19.2907 23.1537 19.3984 23.046 19.3984 22.9134V17.7338C19.7868 17.3993 20.2873 17.2927 20.6969 17.4666C21.0941 17.6343 21.3215 18.0437 21.3215 18.589V22.9134C21.3215 23.046 21.4292 23.1537 21.5619 23.1537H23.9658C24.0985 23.1537 24.2062 23.046 24.2062 22.9134V18.1052C24.1787 16.1309 23.2494 15.4 22.4739 15.1348Z" fill="white"/>
</svg>
