<svg width="40" height="40" viewBox="0 0 36 36" fill="none" xmlns="http://www.w3.org/2000/svg">
<path opacity="0.1" fill-rule="evenodd" clip-rule="evenodd" d="M18.2365 35.0071C27.6331 35.0071 35.2504 27.3943 35.2504 18.0035C35.2504 8.61275 27.6331 1 18.2365 1C8.84003 1 1.22266 8.61275 1.22266 18.0035C1.22266 27.3943 8.84003 35.0071 18.2365 35.0071Z" stroke="white" stroke-width="1.5"/>
<path d="M23.7977 14.8597C23.7188 14.7705 23.5915 14.7481 23.4871 14.8031C23.4221 14.8372 23.3001 14.8821 23.1551 14.9264C23.338 14.6765 23.485 14.3967 23.5499 14.1451C23.578 14.0367 23.537 13.9225 23.4476 13.8578C23.3583 13.7938 23.2393 13.7938 23.1499 13.8578C23.0091 13.9588 22.3296 14.2621 21.9 14.3604C20.9291 13.4862 19.7992 13.3954 18.6246 14.1003C17.6697 14.6733 17.4619 15.8385 17.5025 16.5488C15.3169 16.3325 13.9585 15.1459 13.1937 14.1638C13.1402 14.0949 13.054 14.0586 12.973 14.064C12.8878 14.0704 12.8109 14.119 12.7672 14.1943C12.4057 14.8217 12.3054 15.5154 12.4784 16.2006C12.5729 16.5744 12.7381 16.9039 12.9298 17.1709C12.8379 17.1244 12.7491 17.0662 12.6654 16.9968C12.5885 16.9316 12.481 16.9194 12.3901 16.9626C12.2997 17.0069 12.242 17.1009 12.242 17.204C12.242 18.3804 12.9579 19.1654 13.6265 19.5756C13.5184 19.5622 13.4057 19.5376 13.2919 19.5019C13.1943 19.4714 13.0883 19.5019 13.0208 19.5809C12.9532 19.6594 12.9371 19.7715 12.9792 19.8671C13.3548 20.721 14.0665 21.3084 14.9471 21.5215C14.1782 21.9856 13.1491 22.2131 12.2067 22.1015C12.0846 22.0838 11.9683 22.1634 11.9298 22.2841C11.8914 22.4048 11.9418 22.5372 12.0493 22.5992C13.479 23.4242 14.7715 23.719 15.8884 23.719C17.5139 23.719 18.7685 23.0953 19.5321 22.5735C21.5909 21.1691 22.8741 18.6474 22.6954 16.3912C23.0253 16.1408 23.5188 15.6783 23.8248 15.1811C23.8881 15.0807 23.8767 14.9483 23.7977 14.8597Z" fill="white"/>
</svg>
